<?xml version="1.0" standalone="no"?><!DOCTYPE svg PUBLIC "-//W3C//DTD SVG 1.1//EN" "http://www.w3.org/Graphics/SVG/1.1/DTD/svg11.dtd"><svg class="icon" height="512" viewBox="0 0 1024 1024" version="1.1" xmlns="http://www.w3.org/2000/svg"><path d="M866.1 376.9c-19.8-37.9-48.1-71.8-84-100.8-72.4-58.5-168.4-90.7-270.1-90.7s-197.6 32.2-270.1 90.7c-35.9 29-64.2 62.9-84 100.8-20.9 39.8-31.4 82.2-31.4 125.9 0 37.9 8 75 23.8 110.2 13.1 29.1 31.1 56.4 53.9 81.1l-11.6 109c-1.2 10.8 3.3 21.5 11.8 28.3 5.8 4.6 12.9 7.1 20.1 7.1 3.4 0 6.8-0.5 10.2-1.7l125.8-42.1c47.9 16.9 98.9 25.4 151.7 25.4 101.7 0 197.6-32.2 270.1-90.7 35.9-29 64.2-62.9 84-100.8 20.9-39.8 31.4-82.2 31.4-125.9-0.2-43.6-10.8-86-31.6-125.8zM512 756.2c-49 0-96-8.5-139.8-25.2-6.9-2.7-14.6-2.8-21.6-0.5l-89.2 29.9 7.9-74.3c1-9.7-2.4-19.3-9.3-26.1-22.3-22.1-39.6-46.7-51.4-73.2-12.1-26.9-18.2-55.2-18.2-84 0-139.7 144.2-253.4 321.5-253.4s321.5 113.7 321.5 253.4S689.3 756.2 512 756.2z" /></svg>